<svg width="24" height="24" viewBox="0 0 24 24" fill="none" xmlns="http://www.w3.org/2000/svg">
  <!-- Wireless/Signal icon -->
  <path d="M1 9l2 2c4.97-4.97 13.03-4.97 18 0l2-2C16.93 2.93 7.08 2.93 1 9z" fill="currentColor"/>
  <path d="M4 12l2 2c2.76-2.76 7.24-2.76 10 0l2-2c-3.66-3.66-9.58-3.66-14 0z" fill="currentColor"/>
  <path d="M7 15l2 2c.76-.76 2-1 3-1s2.24.24 3 1l2-2c-1.76-1.76-4.24-2.76-7-2.76s-5.24 1-7 2.76z" fill="currentColor"/>
  <circle cx="12" cy="21" r="1" fill="currentColor"/>
</svg>